%TF.GenerationSoftware,KiCad,Pcbnew,8.0.8*%
%TF.CreationDate,2025-03-18T19:26:01-05:00*%
%TF.ProjectId,half-swept,68616c66-2d73-4776-9570-742e6b696361,rev?*%
%TF.SameCoordinates,Original*%
%TF.FileFunction,Profile,NP*%
%FSLAX46Y46*%
G04 Gerber Fmt 4.6, Leading zero omitted, Abs format (unit mm)*
G04 Created by KiCad (PCBNEW 8.0.8) date 2025-03-18 19:26:01*
%MOMM*%
%LPD*%
G01*
G04 APERTURE LIST*
%TA.AperFunction,Profile*%
%ADD10C,0.050000*%
%TD*%
G04 APERTURE END LIST*
D10*
X106723179Y-26420644D02*
X106787290Y-26456890D01*
X54450000Y-18250000D02*
X65000000Y-18250000D01*
X53600000Y-19100000D02*
G75*
G02*
X54450000Y-18250000I850000J0D01*
G01*
X53599980Y-23826020D02*
X53600000Y-19100000D01*
X53599980Y-23826020D02*
G75*
G02*
X52300000Y-25075000I-1274980J26020D01*
G01*
X36900000Y-25100000D02*
X52300000Y-25075000D01*
X34725001Y-26001314D02*
G75*
G02*
X35675000Y-25100000I949999J-50000D01*
G01*
X34750000Y-31900000D02*
X34725001Y-26001314D01*
X31310000Y-32010000D02*
X34750000Y-31900000D01*
X31340000Y-31100000D02*
X31310000Y-32010000D01*
X31310000Y-30640000D02*
X31340000Y-31100000D01*
X31250000Y-30340000D02*
X31310000Y-30640000D01*
X31130000Y-30080000D02*
X31250000Y-30340000D01*
X30950000Y-29950000D02*
X31130000Y-30080000D01*
X30790000Y-29870000D02*
X30950000Y-29950000D01*
X30610000Y-29840000D02*
X30790000Y-29870000D01*
X30450000Y-29850000D02*
X30610000Y-29840000D01*
X30250000Y-29930000D02*
X30450000Y-29850000D01*
X30000000Y-30110000D02*
X30250000Y-29930000D01*
X29830000Y-29880000D02*
X30000000Y-30110000D01*
X29650000Y-29720000D02*
X29830000Y-29880000D01*
X29420000Y-29560000D02*
X29650000Y-29720000D01*
X29220000Y-29420000D02*
X29420000Y-29560000D01*
X28990000Y-29240000D02*
X29220000Y-29420000D01*
X28700000Y-29060000D02*
X28990000Y-29240000D01*
X28470000Y-28900000D02*
X28700000Y-29060000D01*
X28110000Y-28710000D02*
X28470000Y-28900000D01*
X27720000Y-28570000D02*
X28110000Y-28710000D01*
X27400000Y-28470000D02*
X27720000Y-28570000D01*
X26810000Y-28350000D02*
X27400000Y-28470000D01*
X26610000Y-28110000D02*
X26810000Y-28350000D01*
X26360000Y-27830000D02*
X26610000Y-28110000D01*
X26030000Y-27490000D02*
X26360000Y-27830000D01*
X25840000Y-27330000D02*
X26030000Y-27490000D01*
X25710000Y-27440000D02*
X25840000Y-27330000D01*
X25560000Y-27640000D02*
X25710000Y-27440000D01*
X25250000Y-28030000D02*
X25560000Y-27640000D01*
X25010000Y-28450000D02*
X25250000Y-28030000D01*
X24320000Y-28580000D02*
X25010000Y-28450000D01*
X23660000Y-28730000D02*
X24320000Y-28580000D01*
X22990000Y-29010000D02*
X23660000Y-28730000D01*
X22450000Y-29300000D02*
X22990000Y-29010000D01*
X21040000Y-30250000D02*
X22450000Y-29300000D01*
X20820000Y-30310000D02*
X21040000Y-30250000D01*
X20150000Y-29930000D02*
X20820000Y-30310000D01*
X19710000Y-29710000D02*
X20150000Y-29930000D01*
X19510000Y-29680000D02*
X19710000Y-29710000D01*
X19450000Y-29740000D02*
X19510000Y-29680000D01*
X19370000Y-29970000D02*
X19450000Y-29740000D01*
X19330000Y-30360000D02*
X19370000Y-29970000D01*
X19330000Y-30650000D02*
X19330000Y-30360000D01*
X19460000Y-31200000D02*
X19330000Y-30650000D01*
X19690000Y-31910000D02*
X19460000Y-31200000D01*
X19860000Y-32380000D02*
X19690000Y-31910000D01*
X19650000Y-32750000D02*
X19860000Y-32380000D01*
X19400000Y-33270000D02*
X19650000Y-32750000D01*
X19230000Y-33720000D02*
X19400000Y-33270000D01*
X19150000Y-33970000D02*
X19230000Y-33720000D01*
X19070000Y-34200000D02*
X19150000Y-33970000D01*
X19040000Y-34410000D02*
X19070000Y-34200000D01*
X19000000Y-34600000D02*
X19040000Y-34410000D01*
X18970000Y-34760000D02*
X19000000Y-34600000D01*
X18950000Y-34910000D02*
X18970000Y-34760000D01*
X18940000Y-35040000D02*
X18950000Y-34910000D01*
X18900000Y-35200000D02*
X18940000Y-35040000D01*
X18690055Y-36976702D02*
X18900000Y-35200000D01*
X36900000Y-25100000D02*
X35675000Y-25100000D01*
X126885000Y-44612000D02*
G75*
G02*
X127635000Y-45362000I0J-750000D01*
G01*
X18690055Y-36976702D02*
X18730254Y-86245024D01*
X106787290Y-26456890D02*
G75*
G02*
X107222001Y-27137420I-315290J-680510D01*
G01*
X89409134Y-95561946D02*
G75*
G02*
X110938000Y-104748000I-22787134J-83226054D01*
G01*
X109257002Y-44614917D02*
G75*
G02*
X107222001Y-42683999I-35002J2000917D01*
G01*
X113670000Y-104149265D02*
G75*
G02*
X110938000Y-104748000I-1662000J1051265D01*
G01*
X20767999Y-88081120D02*
G75*
G02*
X89409134Y-95561947I-578029J-323956240D01*
G01*
X20768000Y-88081119D02*
G75*
G02*
X18730252Y-86245024I-59750J1982509D01*
G01*
X127635000Y-45362000D02*
X127635000Y-62484000D01*
X107222001Y-42683999D02*
X107222045Y-27137419D01*
X109257002Y-44614917D02*
X126885000Y-44612000D01*
X125888304Y-83312000D02*
X113670000Y-104149265D01*
X127635000Y-75987850D02*
G75*
G02*
X125888308Y-83312002I-16773900J129950D01*
G01*
X127635000Y-62484000D02*
X127647000Y-69850000D01*
X127647000Y-69850000D02*
X127635000Y-75987850D01*
X70000000Y-18250002D02*
G75*
G02*
X106723179Y-26420644I-12657371J-143500901D01*
G01*
X70000000Y-18250002D02*
X65000000Y-18250000D01*
M02*
